<svg width="146" height="26" viewBox="0 0 146 26" fill="none" xmlns="http://www.w3.org/2000/svg">
    <g clip-path="url(#clip0_1785_545)">
        <path
            d="M21.5225 12.9771C21.5225 8.5512 24.2471 5.84424 28.5036 5.84424C32.76 5.84424 35.3713 8.57937 35.3713 12.7799C35.3713 13.1247 35.3546 13.486 35.2962 13.9005C35.2646 14.1309 35.061 14.3016 34.8274 14.3016H26.0759C25.7588 14.3016 25.5319 14.605 25.6204 14.9067C26.0275 16.3173 27.1687 17.1495 28.6187 17.1495C30.0687 17.1495 31.0598 16.7599 31.6454 15.8797C31.7639 15.7024 31.9775 15.6162 32.1827 15.6759L34.537 16.3671C34.834 16.4533 34.9641 16.7931 34.8107 17.06C33.6177 19.132 31.5503 20.3356 28.5603 20.3356C24.4457 20.3356 21.5225 17.4313 21.5225 12.9771ZM28.4169 8.94571C27.1137 8.94571 26.1092 9.7696 25.6805 11.0526C25.577 11.361 25.8022 11.6792 26.1292 11.6792H30.8112C31.1132 11.6792 31.3351 11.404 31.2767 11.109C31.003 9.75631 29.9219 8.94404 28.4185 8.94404L28.4169 8.94571Z"
            fill="#B5B5C3" />
        <path
            d="M41.9247 16.9241H47.239C47.501 16.9241 47.7129 17.1346 47.7129 17.3949V19.6659C47.7129 19.9261 47.501 20.1366 47.239 20.1366H36.7238C36.4619 20.1366 36.25 19.9261 36.25 19.6659V17.4048C36.25 17.2938 36.2901 17.186 36.3618 17.1015L42.3485 10.0299C42.6088 9.72318 42.3886 9.25577 41.9848 9.25577H36.7238C36.4619 9.25577 36.25 9.04526 36.25 8.78501V6.51399C36.25 6.25374 36.4619 6.04321 36.7238 6.04321H47.2107C47.4726 6.04321 47.6845 6.25374 47.6845 6.51399V8.77339C47.6845 8.88441 47.6445 8.99217 47.5727 9.07669L41.5609 16.1483C41.3007 16.455 41.5193 16.9241 41.923 16.9241H41.9247Z"
            fill="#B5B5C3" />
        <path
            d="M63.5266 6.69633L55.556 25.4875C55.4826 25.6616 55.3091 25.776 55.1189 25.776H52.0421C51.7 25.776 51.4715 25.4279 51.6066 25.1179L53.9359 19.7852C53.9876 19.6691 53.9876 19.5366 53.9393 19.4188L48.6934 6.69301C48.5649 6.38304 48.7951 6.04321 49.1322 6.04321H52.4092C52.6078 6.04321 52.7846 6.16588 52.8546 6.34988L55.7329 14.0531C55.8847 14.4608 56.467 14.4625 56.6222 14.0546L59.5488 6.34822C59.6189 6.16422 59.7958 6.04321 59.9926 6.04321H63.0928C63.4315 6.04321 63.6618 6.38635 63.53 6.69799L63.5266 6.69633Z"
            fill="#B5B5C3" />
        <path
            d="M63.5479 13.0899C63.5479 8.72024 66.4144 5.84424 70.529 5.84424C73.3588 5.84424 75.6714 7.11733 76.7994 9.41321C76.9295 9.68007 76.791 9.99834 76.5041 10.0796L73.9996 10.7841C73.7843 10.8437 73.5624 10.746 73.4523 10.5536C72.8967 9.59387 71.9189 9.11484 70.6424 9.11484C68.9406 9.11484 67.4639 10.7211 67.4639 13.0899C67.4639 15.4587 68.9389 17.0367 70.6424 17.0367C71.9089 17.0367 72.9401 16.639 73.5424 15.6294C73.6508 15.4471 73.8744 15.3659 74.0796 15.4255L76.5525 16.1483C76.8411 16.2328 76.9779 16.5594 76.8377 16.8245C75.6898 18.9779 73.2921 20.3356 70.529 20.3356C66.4144 20.3637 63.5479 17.544 63.5479 13.0899Z"
            fill="#B5B5C3" />
        <path
            d="M78.0752 13.0899C78.0752 8.66389 81.2253 5.84424 85.3401 5.84424C89.4542 5.84424 92.6048 8.66389 92.6048 13.0899C92.6048 17.5158 89.3692 20.3356 85.2265 20.3356C81.0835 20.3356 78.0752 17.544 78.0752 13.0899ZM88.6607 13.0899C88.6607 10.4393 87.0433 9.11484 85.2829 9.11484C83.523 9.11484 82.0195 10.4393 82.0195 13.0899C82.0195 15.7405 83.4663 17.0367 85.2265 17.0367C86.9869 17.0367 88.6607 15.7405 88.6607 13.0899Z"
            fill="#B5B5C3" />
        <path
            d="M100.806 17.0649C102.564 17.0649 103.53 15.9095 103.53 13.7661V6.51223C103.53 6.25197 103.742 6.04145 104.005 6.04145H106.915C107.177 6.04145 107.389 6.25197 107.389 6.51223V19.6658C107.389 19.926 107.177 20.1365 106.915 20.1365H104.241C104.012 20.1365 103.813 19.9708 103.774 19.7453L103.737 19.5348C103.676 19.1801 103.255 19.0259 102.972 19.2514C102.121 19.926 101.034 20.3338 99.8412 20.3338C96.4642 20.3338 94.3369 18.1905 94.3369 14.2718V6.51057C94.3369 6.25032 94.549 6.03979 94.8107 6.03979H97.7206C97.9831 6.03979 98.1943 6.25032 98.1943 6.51057V13.8209C98.1943 15.9343 99.0737 17.0632 100.806 17.0632V17.0649Z"
            fill="#B5B5C3" />
        <path
            d="M113.583 6.44092L113.654 6.89844C113.713 7.26478 114.156 7.42889 114.433 7.18024C115.455 6.26687 116.801 5.75466 118.311 5.96849C118.541 6.00165 118.711 6.20222 118.711 6.43429V8.86441C118.711 9.1545 118.45 9.37003 118.161 9.32856C116.236 9.05343 113.859 10.2784 113.859 13.5125V19.6658C113.859 19.926 113.647 20.1365 113.386 20.1365H110.476C110.214 20.1365 110.002 19.926 110.002 19.6658V6.51387C110.002 6.25361 110.214 6.04309 110.476 6.04309H113.114C113.347 6.04309 113.546 6.21216 113.583 6.44092Z"
            fill="#B5B5C3" />
        <path
            d="M125.268 17.2623C126.487 17.2623 127.283 16.755 127.283 16.0223C127.283 15.1206 126.064 14.8388 124.615 14.5006C122.599 13.9933 119.592 13.2325 119.592 10.2155C119.592 7.67766 121.835 5.84595 125.154 5.84595C127.597 5.84595 129.372 6.79082 130.286 8.59434C130.422 8.85961 130.28 9.18281 129.993 9.26407L127.675 9.91549C127.478 9.97017 127.271 9.89233 127.153 9.72488C126.748 9.1497 125.945 8.91763 125.183 8.91763C124.105 8.91763 123.395 9.36849 123.395 10.073C123.395 11.0029 124.502 11.2565 126.006 11.6511C128.334 12.2429 131.057 13.0037 131.114 16.0488C131.114 18.474 128.872 20.3339 125.354 20.3339C122.799 20.3339 120.395 19.3675 119.451 16.9921C119.348 16.7318 119.488 16.4401 119.758 16.3605L122.149 15.6642C122.376 15.598 122.614 15.7106 122.714 15.9228C123.234 17.0285 124.448 17.2589 125.269 17.2589L125.268 17.2623Z"
            fill="#B5B5C3" />
        <path
            d="M132.133 12.9771C132.133 8.5512 134.858 5.84424 139.114 5.84424C143.37 5.84424 145.981 8.57937 145.981 12.7799C145.981 13.1247 145.965 13.486 145.906 13.9005C145.874 14.1309 145.671 14.3016 145.438 14.3016H136.686C136.369 14.3016 136.143 14.605 136.231 14.9067C136.638 16.3173 137.779 17.1495 139.229 17.1495C140.679 17.1495 141.67 16.7599 142.256 15.8797C142.374 15.7024 142.588 15.6162 142.793 15.6759L145.147 16.3671C145.444 16.4533 145.574 16.7931 145.421 17.06C144.228 19.132 142.161 20.3356 139.17 20.3356C135.056 20.3356 132.133 17.4313 132.133 12.9771ZM139.029 8.94571C137.725 8.94571 136.722 9.7696 136.292 11.0526C136.189 11.361 136.414 11.6792 136.741 11.6792H141.423C141.725 11.6792 141.947 11.404 141.888 11.109C141.615 9.75631 140.533 8.94404 139.031 8.94404L139.029 8.94571Z"
            fill="#B5B5C3" />
        <path
            d="M16.4728 23.5425V23.9762L16.4693 23.9779V23.9985C16.4141 24.4441 16.202 24.8777 15.8345 25.2205C15.4325 25.5942 14.9281 25.8514 14.4019 25.8788H8.92285L9.93425 24.8862L12.7067 22.3067C13.5727 21.5029 14.9753 21.5029 15.8396 22.3067C16.2054 22.6478 16.4176 23.0798 16.4728 23.5237V23.5391V23.5425Z"
            fill="#B5B5C3" />
        <path
            d="M10.23 1.00223L1.46048 9.11379C-0.0154414 10.479 -0.0979438 12.7744 1.27621 14.2407C2.65036 15.707 4.9608 15.7889 6.43673 14.4237L15.2062 6.31218C16.6821 4.94699 16.7646 2.65161 15.3905 1.1853C14.0163 -0.280999 11.7059 -0.362964 10.23 1.00223Z"
            fill="#B5B5C3" />
        <path
            d="M10.2959 12.6727L2.75931 19.6438C1.28339 21.009 1.20088 23.3044 2.57504 24.7707C3.94919 26.237 6.25963 26.319 7.73556 24.9538L15.2721 17.9826C16.748 16.6175 16.8305 14.3221 15.4564 12.8558C14.0822 11.3895 11.7718 11.3075 10.2959 12.6727Z"
            fill="#B5B5C3" />
    </g>
    <defs>
        <clipPath id="clip0_1785_545">
            <rect width="146" height="26" fill="white" />
        </clipPath>
    </defs>
</svg>