<svg width="164" height="42" viewBox="0 0 164 42" fill="none" xmlns="http://www.w3.org/2000/svg">
    <path
        d="M46.2927 20.6885L45.3242 22.0297H51.4431C51.4431 23.1222 51.1971 24.0881 50.7051 24.9297C50.2131 25.7712 49.535 26.4285 48.6729 26.897C47.8108 27.3678 46.8268 27.6031 45.7209 27.6031C44.4044 27.6031 43.2343 27.3078 42.2126 26.7149C41.1909 26.1243 40.3887 25.3094 39.8058 24.2702C39.2229 23.231 38.9326 22.0452 38.9326 20.7085C38.9326 19.3717 39.2229 18.1416 39.8058 17.1024C40.3887 16.0632 41.1909 15.2483 42.2126 14.6576C43.2343 14.067 44.4044 13.7694 45.7209 13.7694C46.388 13.7694 47.0484 13.8827 47.7066 14.1114C48.3648 14.3379 48.9699 14.6576 49.5239 15.0662C50.0757 15.4748 50.519 15.9455 50.8514 16.4762L51.964 15.6346C51.5562 15.0129 51.0132 14.4622 50.3395 13.9848C49.6597 13.5043 48.9139 13.1251 48.1255 12.859C47.3232 12.5859 46.5209 12.4504 45.7187 12.4504C44.1141 12.4504 42.6913 12.8035 41.4502 13.5074C40.2092 14.2135 39.2362 15.1839 38.5315 16.4207C37.8267 17.6575 37.4766 19.0875 37.4766 20.7085C37.4766 22.3295 37.8289 23.715 38.5315 24.9519C39.2362 26.1887 40.2069 27.159 41.4502 27.8652C42.6913 28.5713 44.1141 28.9221 45.7187 28.9221C47.1104 28.9221 48.3449 28.6268 49.4197 28.0339C50.4946 27.4433 51.3345 26.6283 51.9396 25.5891C52.5446 24.55 52.8482 23.3642 52.8482 22.0275V20.6863H46.2904L46.2927 20.6885ZM87.758 27.3322V12.7258H86.3064V28.6512H95.4572V27.3322H87.758ZM117.517 28.6512H119.062L112.522 12.7258H111.024L107.751 20.6974H104.233L103.615 22.0164H107.208L104.484 28.6512H106.026L108.732 22.0164H112.017V20.6974H109.271L111.773 14.5644L117.517 28.6512ZM141.328 12.7258H139.602L134.868 19.4273L130.132 12.7258H128.408L134.05 20.5908L128.408 28.6512H130.179L134.868 21.761L139.558 28.6512H141.328L135.686 20.5908L141.328 12.7258ZM75.3517 28.6512H76.8964L70.3563 12.7258H68.8582L65.6535 20.5286H62.0921L61.4715 21.8476H65.1128L62.3181 28.6512H63.8628L66.6375 21.8476H69.8732V20.5286H67.1738L69.6072 14.5644L75.3517 28.6512Z"
        fill="#B5B5C3" />
    <path
        d="M18.1284 20.8728C18.1284 19.0542 16.6569 17.582 14.844 17.582C13.0311 17.582 11.5596 19.0564 11.5596 20.8728C11.5596 22.6892 13.0311 24.1636 14.844 24.1636C16.6569 24.1636 18.1284 22.6892 18.1284 20.8728Z"
        fill="#B5B5C3" />
    <path
        d="M13.5431 29.013C13.5431 29.013 13.5653 29.0152 13.5764 29.0174C13.7802 29.0454 13.985 29.0662 14.1903 29.0796C14.3676 29.0907 14.5449 29.0996 14.7266 29.0996H14.844C14.9859 29.0996 15.1255 29.0929 15.2673 29.0885C22.3282 28.8642 27.984 23.0643 27.984 15.9342C27.984 15.3769 27.9463 14.8284 27.8776 14.2888C27.4255 17.9149 25.5063 21.0836 22.7271 23.1753C22.9111 22.5402 23.0175 21.8741 23.044 21.1857V21.1458C23.0463 21.0547 23.0529 20.9637 23.0529 20.8726V20.755C23.0529 20.6639 23.0463 20.5751 23.044 20.4841V20.4374C23.0175 19.7491 22.9111 19.0829 22.7271 18.4501C22.7138 18.4079 22.6983 18.3679 22.685 18.3257C21.5016 12.2749 16.1849 7.70728 9.79994 7.70728C9.24367 7.70728 8.69626 7.74502 8.15772 7.81386C11.6948 8.25574 14.7931 10.1054 16.8807 12.7878C16.3599 12.6546 15.8214 12.5657 15.2673 12.5369C15.1255 12.5324 14.9859 12.5258 14.844 12.5258C14.7022 12.5258 14.5626 12.5324 14.4208 12.5369C7.35989 12.7611 1.7041 18.5611 1.7041 25.6911C1.7041 26.2485 1.74178 26.7969 1.81048 27.3365C2.25594 23.7593 4.13307 20.6284 6.85016 18.5367C6.84572 18.55 6.84351 18.5655 6.83907 18.5811C6.79032 18.7476 6.74821 18.9164 6.71053 19.0896C6.70389 19.1162 6.69724 19.1429 6.6928 19.1695C6.64499 19.3972 6.60728 19.6269 6.57978 19.8579C6.53989 20.1909 6.51551 20.5285 6.51551 20.8726V20.8771C6.51551 21.0192 6.51994 21.1591 6.52659 21.299C6.75043 28.3713 12.5414 34.0358 19.6532 34.0358C20.2095 34.0358 20.7569 33.998 21.2955 33.9292C17.6764 33.4762 14.5138 31.5533 12.4262 28.7687C12.7874 28.8753 13.1597 28.9575 13.5409 29.0108L13.5431 29.013ZM9.9174 20.8726C9.9174 18.1459 12.1225 15.9365 14.844 15.9365C17.5656 15.9365 19.7707 18.1459 19.7707 20.8726C19.7707 23.5994 17.5656 25.8088 14.844 25.8088C12.1225 25.8088 9.9174 23.5994 9.9174 20.8726ZM160.591 12.4569L155.844 20.2154L151.099 12.4569H149.395L155.117 21.7386V28.3824H156.571V21.7386L162.293 12.4569H160.591Z"
        fill="#B5B5C3" />
</svg>