<svg width="158" height="28" viewBox="0 0 158 28" fill="none" xmlns="http://www.w3.org/2000/svg">
    <g clip-path="url(#clip0_1243_4961)">
        <path
            d="M8.56963 22.4424V24.8877C8.56937 25.0062 8.53749 25.1226 8.47727 25.2247C8.41706 25.3268 8.33069 25.411 8.22708 25.4686C8.12347 25.5262 8.00636 25.5552 7.88785 25.5524C7.76933 25.5497 7.65368 25.5154 7.55284 25.453L6.41675 24.7211L6.14482 24.5684L1.13719 21.6729L0.866329 21.517C0.60195 21.3653 0.382503 21.1462 0.230328 20.882C0.0781531 20.6179 -0.00131412 20.3182 1.6438e-05 20.0133V13.9233V7.82475C1.6438e-05 7.50122 0.091377 7.18522 0.2612 6.91329C0.429948 6.64028 0.673935 6.41672 0.927594 6.29419L5.86536 3.43944L6.13407 3.28251L6.40708 3.12666L11.1396 0.394444L11.4158 0.23107C11.6914 0.0724661 12.0056 -0.00685496 12.3235 0.00187026C12.6414 0.0105955 12.9507 0.107027 13.2172 0.280513L18.1399 3.12559L18.4129 3.27929L23.4173 6.17381L23.6903 6.32966C23.9544 6.48208 24.1733 6.70171 24.3249 6.96621C24.4765 7.23071 24.5554 7.53064 24.5534 7.83549L24.5545 13.3795C24.5545 13.4963 24.5238 13.6111 24.4654 13.7123C24.4069 13.8135 24.3229 13.8976 24.2217 13.956C24.1205 14.0144 24.0056 14.0451 23.8888 14.045C23.7719 14.0449 23.6571 14.0141 23.556 13.9556L21.4321 12.7281C21.3309 12.6698 21.2468 12.5859 21.1883 12.4847C21.1298 12.3836 21.099 12.2688 21.0989 12.152V8.82004L16.776 6.31998C16.6564 6.25504 16.5381 6.18767 16.4213 6.11791L12.2778 3.72104L7.96773 6.21035L7.90216 6.25334L7.59691 6.43069L3.45559 8.82219V19.0277L7.78178 21.5288C7.80973 21.5428 7.86884 21.5772 8.14508 21.7363L8.23429 21.8158L8.30737 21.9147C8.38869 21.9766 8.45464 22.0564 8.50012 22.1479C8.5456 22.2395 8.56939 22.3402 8.56963 22.4424ZM21.1 16.159C21.1 15.6474 21.6535 15.3271 22.0974 15.5829L24.2213 16.806C24.4277 16.9243 24.5545 17.1446 24.5545 17.3832V19.4082C24.5546 19.5821 24.4867 19.7491 24.3653 19.8736L23.3636 20.8947C22.9874 21.3741 22.4371 21.5654 21.9448 21.2816L14.0523 16.7061L14.0502 25.3402C14.0641 25.4999 14.0385 25.6606 13.9757 25.8081C13.9129 25.9556 13.8149 26.0854 13.6901 26.1861L12.2348 27.3619C12.0953 27.4914 11.921 27.5774 11.7334 27.6092C11.5457 27.6411 11.3529 27.6176 11.1784 27.5415C11.0039 27.4654 10.8555 27.34 10.7512 27.1808C10.6469 27.0216 10.5914 26.8354 10.5914 26.645L10.5925 14.7058L9.2629 13.9362L8.59006 14.3232C8.55781 14.3447 8.56856 14.3393 7.89142 14.7316C7.78006 14.7992 7.65637 14.8439 7.52756 14.8632C7.39874 14.8825 7.26738 14.8759 7.14112 14.8439C7.01486 14.8119 6.89625 14.755 6.79218 14.6767C6.68811 14.5984 6.60068 14.5001 6.53498 14.3877L6.15987 13.7406L5.78905 13.1C5.72162 12.9886 5.67701 12.8649 5.65781 12.7361C5.63861 12.6074 5.6452 12.476 5.67721 12.3498C5.70921 12.2236 5.76599 12.105 5.84423 12.0009C5.92248 11.8969 6.02064 11.8094 6.13299 11.7436L6.78757 11.3685L8.40518 10.4366L8.69754 10.2721C8.85049 10.1633 9.03154 10.1007 9.21909 10.0919C9.40663 10.0832 9.59273 10.1286 9.75517 10.2227L10.1238 10.4377L21.0978 16.7802V16.159H21.1Z"
            fill="currentColor" />
        <path fill-rule="evenodd" clip-rule="evenodd"
            d="M31.6375 19.4729C31.5762 19.4732 31.5155 19.4609 31.4591 19.4369C31.4027 19.4129 31.3519 19.3776 31.3097 19.3331C31.2655 19.2914 31.2303 19.2411 31.2063 19.1853C31.1822 19.1295 31.1699 19.0693 31.1699 19.0085V6.91456C31.1698 6.85322 31.1818 6.79247 31.2053 6.73579C31.2287 6.67912 31.2632 6.62767 31.3067 6.58439C31.3502 6.54112 31.4018 6.50689 31.4585 6.48368C31.5153 6.46047 31.5761 6.44874 31.6375 6.44916H34.2525C34.389 6.44916 34.5008 6.49216 34.5879 6.57922C34.6316 6.62313 34.6658 6.67556 34.6883 6.73325C34.7109 6.79094 34.7213 6.85266 34.719 6.91456V16.5526H40.3232C40.4597 16.5526 40.5747 16.5988 40.6671 16.6923C40.7617 16.7847 40.8079 16.8997 40.8079 17.0362V19.0085C40.8079 19.1451 40.7617 19.2558 40.6682 19.3428C40.5746 19.4296 40.4508 19.4763 40.3232 19.4729H31.6375ZM41.6484 19.4729C41.5975 19.4723 41.5472 19.4614 41.5006 19.4407C41.454 19.42 41.4121 19.39 41.3776 19.3525C41.34 19.3182 41.3098 19.2766 41.2889 19.2302C41.268 19.1838 41.2568 19.1336 41.2561 19.0827C41.2561 19.0075 41.2626 18.9527 41.2755 18.915L45.6264 6.98873C45.7511 6.62866 45.9993 6.44916 46.3734 6.44916H49.2862C49.6602 6.44916 49.9096 6.62866 50.0343 6.98873L54.3862 18.915C54.4008 18.9697 54.4069 19.0262 54.4045 19.0827C54.4036 19.1334 54.3924 19.1834 54.3715 19.2296C54.3506 19.2758 54.3205 19.3172 54.2831 19.3514C54.2486 19.389 54.2067 19.4192 54.1602 19.4401C54.1136 19.461 54.0632 19.4721 54.0122 19.4729H51.5842C51.4491 19.4795 51.3153 19.4437 51.2016 19.3704C51.0878 19.2972 50.9999 19.1902 50.95 19.0644L50.2772 17.2587H45.3835L44.7106 19.0644C44.6608 19.1902 44.5728 19.2972 44.4591 19.3704C44.3454 19.4437 44.2116 19.4795 44.0765 19.4729H41.6484ZM46.1692 14.4685H49.4936L47.8309 9.72417L46.1692 14.4685ZM56.3113 19.4729C56.1835 19.4768 56.0592 19.4305 55.9652 19.3439C55.9192 19.3013 55.883 19.2493 55.8588 19.1914C55.8347 19.1336 55.8233 19.0712 55.8254 19.0085V6.93284C55.8254 6.79633 55.8727 6.68133 55.9652 6.58889C56.0103 6.54324 56.0643 6.50729 56.1238 6.48326C56.1833 6.45923 56.2471 6.44763 56.3113 6.44916H58.4222C58.5623 6.44197 58.7012 6.47708 58.821 6.54992C58.9408 6.62276 59.0359 6.72997 59.094 6.8576L62.3077 12.5886L65.5387 6.85867C65.5965 6.73102 65.6914 6.62371 65.811 6.55068C65.9306 6.47765 66.0694 6.44228 66.2094 6.44916H68.3203C68.4579 6.44916 68.5729 6.49538 68.6664 6.58889C68.7589 6.68133 68.8062 6.79633 68.8062 6.93284V19.0085C68.8062 19.1451 68.7589 19.2558 68.6664 19.3428C68.5725 19.4298 68.4483 19.4765 68.3203 19.4729H65.9482C65.8871 19.473 65.8266 19.4607 65.7704 19.4367C65.7142 19.4127 65.6635 19.3774 65.6214 19.3331C65.5773 19.2914 65.5421 19.2411 65.5181 19.1853C65.494 19.1295 65.4817 19.0693 65.4817 19.0085V12.235L63.4643 15.9195C63.303 16.2043 63.0838 16.3473 62.8097 16.3473H61.8026C61.5532 16.3473 61.3361 16.2043 61.1491 15.9195L59.1499 12.235V19.0085C59.1499 19.1451 59.1037 19.2558 59.0102 19.3428C58.9165 19.4295 58.7927 19.4762 58.6651 19.4729H56.3113ZM71.8146 19.4729C71.7535 19.4731 71.693 19.4608 71.6368 19.4368C71.5806 19.4128 71.5299 19.3775 71.4879 19.3331C71.4437 19.2914 71.4085 19.2411 71.3845 19.1853C71.3605 19.1295 71.3481 19.0693 71.3481 19.0085V6.93284C71.3442 6.80569 71.3906 6.68212 71.4771 6.58889C71.5201 6.54282 71.5725 6.50652 71.6307 6.48241C71.6889 6.45831 71.7516 6.44697 71.8146 6.44916H77.5864C79.1664 6.44916 80.3445 6.77161 81.1162 7.41651C81.8879 8.06141 82.2738 8.97931 82.2738 10.1702C82.2738 10.7657 82.1158 11.2805 81.7976 11.7148C81.4805 12.149 81.128 12.465 80.7421 12.6638C81.2527 12.8863 81.6826 13.255 82.0319 13.7709C82.3802 14.2857 82.5543 14.8651 82.5543 15.51C82.5543 16.7632 82.1405 17.737 81.3118 18.4314C80.4842 19.1257 79.2986 19.474 77.7541 19.474L71.8146 19.4729ZM77.1931 11.603C77.6552 11.603 78.0099 11.4794 78.2582 11.2311C78.5076 10.9828 78.6322 10.6614 78.6322 10.2637C78.6322 9.87894 78.5108 9.56509 78.2668 9.32433C78.025 9.08142 77.6671 8.96104 77.1931 8.96104H74.8585V11.603H77.1931ZM77.3618 16.961C77.8476 16.961 78.2238 16.8213 78.4915 16.5418C78.7602 16.2634 78.8934 15.9195 78.8934 15.51C78.8993 15.3161 78.8659 15.1231 78.7954 14.9425C78.7248 14.7619 78.6185 14.5973 78.4828 14.4588C78.2088 14.1793 77.8347 14.0396 77.3618 14.0396H74.8585V16.961H77.3618ZM85.02 19.4729C84.9589 19.473 84.8984 19.4607 84.8422 19.4367C84.786 19.4127 84.7353 19.3774 84.6932 19.3331C84.649 19.2914 84.6139 19.2411 84.5898 19.1853C84.5658 19.1295 84.5534 19.0693 84.5535 19.0085V6.93284C84.5499 6.80554 84.5966 6.68195 84.6835 6.58889C84.7264 6.54296 84.7786 6.50674 84.8366 6.48264C84.8947 6.45854 84.9572 6.44712 85.02 6.44916H89.9319C91.7753 6.44916 93.2069 6.88662 94.228 7.76045C95.2491 8.63537 95.7855 9.89077 95.8349 11.5288C95.8467 11.8878 95.8532 12.3661 95.8532 12.9616C95.8532 13.557 95.8467 14.0278 95.8349 14.375C95.7102 17.7736 93.7734 19.4729 90.0255 19.4729H85.02ZM89.9319 16.6826C90.7166 16.6826 91.2959 16.4967 91.6699 16.1237C92.0429 15.7518 92.2417 15.1564 92.2665 14.3384C92.2923 13.9783 92.3041 13.5129 92.3041 12.9422C92.3041 12.3726 92.2923 11.9125 92.2665 11.5664C92.2417 10.7711 92.0268 10.1853 91.6226 9.80801C91.2174 9.42967 90.6231 9.2405 89.8384 9.2405H88.065V16.6826H89.9319ZM97.2548 19.4729C97.2038 19.4723 97.1535 19.4613 97.1069 19.4406C97.0604 19.4199 97.0185 19.3899 96.9839 19.3525C96.9463 19.3182 96.9161 19.2766 96.8952 19.2302C96.8743 19.1838 96.8632 19.1336 96.8624 19.0827C96.86 19.0262 96.8662 18.9697 96.8807 18.915L101.233 6.98873C101.357 6.62866 101.607 6.44916 101.98 6.44916H104.894C105.268 6.44916 105.517 6.62866 105.641 6.98873L109.994 18.915C110.008 18.9697 110.014 19.0263 110.011 19.0827C110.01 19.1333 109.999 19.1833 109.978 19.2294C109.958 19.2756 109.928 19.3171 109.89 19.3514C109.856 19.3891 109.814 19.4193 109.768 19.4402C109.721 19.4611 109.671 19.4722 109.62 19.4729H107.19C107.055 19.4795 106.922 19.4437 106.808 19.3704C106.694 19.2972 106.606 19.1902 106.556 19.0644L105.883 17.2587H100.99L100.317 19.0644C100.267 19.1903 100.179 19.2974 100.066 19.3706C99.9518 19.4439 99.8179 19.4796 99.6828 19.4729H97.2548ZM101.774 14.4685H105.099L103.437 9.72417L101.774 14.4685ZM113.891 19.6588C113.764 19.6624 113.64 19.6162 113.546 19.5298C113.5 19.4873 113.464 19.4353 113.44 19.3774C113.415 19.3195 113.404 19.2571 113.406 19.1945V9.66828H110.118C109.99 9.67189 109.866 9.62519 109.772 9.53822C109.726 9.49564 109.69 9.44365 109.666 9.38578C109.642 9.32791 109.63 9.26553 109.632 9.20288V7.11878C109.632 6.98228 109.679 6.86727 109.772 6.77484C109.817 6.72918 109.871 6.69324 109.931 6.66921C109.99 6.64518 110.054 6.63357 110.118 6.63511H120.26C120.397 6.63511 120.513 6.68133 120.606 6.77484C120.699 6.86727 120.746 6.98228 120.746 7.11878V9.20288C120.746 9.33938 120.699 9.45009 120.606 9.53822C120.512 9.6248 120.388 9.6711 120.26 9.6672H116.974V19.1945C116.974 19.331 116.926 19.4417 116.834 19.5288C116.74 19.6157 116.616 19.6624 116.488 19.6588H113.891ZM122.857 19.6588C122.796 19.659 122.736 19.6467 122.679 19.6226C122.623 19.5986 122.573 19.5634 122.53 19.5191C122.486 19.4774 122.451 19.427 122.427 19.3712C122.403 19.3154 122.391 19.2553 122.391 19.1945V7.11878C122.387 6.99163 122.433 6.86806 122.52 6.77484C122.563 6.72877 122.615 6.69246 122.673 6.66836C122.732 6.64425 122.794 6.63291 122.857 6.63511H131.673C131.809 6.63511 131.926 6.68133 132.018 6.77484C132.111 6.86727 132.159 6.98228 132.159 7.11878V8.96104C132.159 9.09754 132.111 9.20825 132.019 9.29531C131.925 9.38277 131.801 9.42987 131.673 9.42644H125.771V11.7889H131.262C131.399 11.7889 131.514 11.8351 131.607 11.9286C131.701 12.0211 131.747 12.1361 131.747 12.2726V13.9654C131.749 14.0293 131.737 14.0928 131.713 14.1519C131.689 14.2111 131.653 14.2647 131.607 14.3094C131.562 14.3548 131.509 14.3906 131.449 14.4146C131.39 14.4386 131.326 14.4504 131.262 14.4491H125.77V16.8675H131.822C131.959 16.8675 132.075 16.9148 132.168 17.0072C132.261 17.1007 132.308 17.2157 132.308 17.3512V19.1945C132.308 19.331 132.261 19.4417 132.168 19.5288C132.075 19.6157 131.95 19.6624 131.822 19.6588H122.857ZM139.331 19.8448C138.123 19.8448 137.095 19.6717 136.25 19.3245C135.403 18.9774 134.761 18.5184 134.326 17.9477C133.889 17.378 133.659 16.7568 133.635 16.0872C133.635 15.9754 133.674 15.8829 133.756 15.8077C133.834 15.7344 133.938 15.6943 134.045 15.6959H136.529C136.655 15.6908 136.781 15.7167 136.894 15.7712C136.987 15.8206 137.09 15.9066 137.202 16.0313C137.363 16.329 137.616 16.5741 137.959 16.7665C138.3 16.9578 138.758 17.0545 139.331 17.0545C140.004 17.0545 140.52 16.9524 140.881 16.7471C141.242 16.5429 141.423 16.2602 141.423 15.9012C141.426 15.7803 141.403 15.6601 141.355 15.5492C141.306 15.4383 141.234 15.3394 141.143 15.2595C140.956 15.0919 140.657 14.9425 140.247 14.8124C139.663 14.6388 139.07 14.4928 138.472 14.375C136.965 14.0772 135.839 13.6247 135.091 13.0164C134.344 12.4091 133.971 11.5406 133.971 10.4121C133.971 9.64356 134.186 8.95782 134.616 8.35591C135.045 7.75401 135.654 7.28645 136.445 6.95111C137.236 6.61684 138.154 6.44916 139.2 6.44916C140.296 6.44916 141.245 6.63833 142.048 7.01667C142.852 7.39501 143.468 7.86579 143.898 8.43007C144.328 8.99543 144.555 9.55005 144.58 10.0961C144.581 10.203 144.541 10.3064 144.468 10.3841C144.433 10.4233 144.389 10.4544 144.341 10.4754C144.293 10.4963 144.241 10.5066 144.188 10.5056H141.573C141.447 10.5102 141.322 10.4816 141.211 10.4228C141.099 10.3639 141.005 10.2768 140.938 10.1702C140.863 9.91011 140.669 9.68977 140.358 9.51028C140.047 9.32971 139.661 9.2405 139.2 9.2405C138.678 9.2405 138.272 9.33293 137.985 9.51995C137.7 9.70482 137.557 9.97783 137.557 10.3368C137.557 10.6969 137.744 10.9796 138.118 11.1838C138.491 11.3891 139.188 11.5965 140.209 11.8072C141.38 12.0179 142.311 12.2823 143.002 12.5983C143.693 12.9143 144.203 13.3238 144.533 13.8257C144.863 14.3287 145.028 14.965 145.028 15.7335C145.028 16.5773 144.785 17.3082 144.3 17.9283C143.814 18.5485 143.141 19.0236 142.283 19.3525C141.423 19.6814 140.439 19.8448 139.331 19.8448ZM150.184 19.6588C150.056 19.6628 149.932 19.6165 149.838 19.5298C149.792 19.4873 149.755 19.4353 149.731 19.3774C149.707 19.3195 149.696 19.2571 149.698 19.1945V9.66828H146.41C146.282 9.67172 146.158 9.62503 146.065 9.53822C146.019 9.49564 145.983 9.44365 145.958 9.38578C145.934 9.32791 145.923 9.26553 145.925 9.20288V7.11878C145.925 6.98228 145.971 6.86727 146.065 6.77484C146.11 6.72926 146.164 6.69336 146.223 6.66933C146.282 6.64531 146.346 6.63366 146.41 6.63511H156.552C156.69 6.63511 156.805 6.68133 156.898 6.77484C156.992 6.86727 157.038 6.98228 157.038 7.11878V9.20288C157.038 9.33938 156.992 9.45009 156.898 9.53822C156.804 9.6249 156.68 9.67122 156.552 9.6672H153.265V19.1945C153.265 19.331 153.218 19.4417 153.125 19.5288C153.032 19.6158 152.907 19.6625 152.779 19.6588H150.184Z"
            fill="currentColor" />
    </g>
    <defs>
        <clipPath id="clip0_1243_4961">
            <rect width="158" height="27.9456" fill="white" />
        </clipPath>
    </defs>
</svg>