<svg width="134" height="36" viewBox="0 0 134 36" fill="none" xmlns="http://www.w3.org/2000/svg">
    <g clip-path="url(#clip0_1243_4941)">
        <path
            d="M52.3272 19.5264H51.7366V25.2896H48.335V9.51196H52.8941C54.091 9.51196 55.0439 9.61428 55.7525 9.8189C56.4769 10.0237 57.1148 10.378 57.6659 10.8819C58.6265 11.7322 59.1069 12.8973 59.1069 14.3774C59.1069 16.1882 58.5715 17.4952 57.5006 18.2983C57.1384 18.5817 56.7131 18.8179 56.2249 19.0068L60.2644 24.5102L57.7131 26.069L53.0359 19.5028C52.8941 19.5186 52.6579 19.5264 52.3272 19.5264ZM54.9966 16.5268C55.5478 16.1489 55.8234 15.519 55.8234 14.6372C55.8234 13.7398 55.595 13.0784 55.1383 12.6532C54.6974 12.2281 53.7682 12.0156 52.3508 12.0156H51.7366V17.0228H51.9964C53.5556 17.0228 54.5556 16.8575 54.9966 16.5268Z"
            fill="currentColor" />
        <path
            d="M64.1004 19.5737C64.1318 21.9356 65.1713 23.1166 67.2186 23.1166C68.1792 23.1166 69.132 22.9355 70.0769 22.5733L70.6439 24.8172C69.4312 25.3368 68.0847 25.5966 66.6044 25.5966C62.872 25.5966 61.0059 23.4 61.0059 19.0068C61.0059 17.2747 61.4705 15.834 62.3996 14.6844C63.3287 13.535 64.6673 12.9602 66.4154 12.9602C67.817 12.9602 68.8958 13.3382 69.6517 14.0939C70.4234 14.834 70.8092 15.8733 70.8092 17.2117C70.8092 17.999 70.7069 18.7863 70.5021 19.5737H64.1004ZM68.1635 17.7785V17.6369C68.1635 16.078 67.6123 15.2985 66.5098 15.2985C65.187 15.2985 64.3918 16.1252 64.124 17.7785H68.1635Z"
            fill="currentColor" />
        <path
            d="M78.9698 25.0769C78.1666 25.4233 77.3871 25.5965 76.6312 25.5965C75.8752 25.5965 75.2532 25.5099 74.765 25.3367C74.2768 25.1635 73.9068 24.9666 73.6547 24.7462C73.4185 24.5257 73.2374 24.2029 73.1114 23.7777C72.9854 23.3526 72.9066 22.9983 72.8752 22.7149C72.8595 22.4157 72.8516 22.0062 72.8516 21.4866V8.75586H76.1823V21.6757C76.1823 22.1323 76.2453 22.4551 76.3714 22.644C76.5131 22.833 76.7886 22.9274 77.1982 22.9274C77.6076 22.9274 78.0327 22.8724 78.4737 22.7621L78.9698 25.0769Z"
            fill="currentColor" />
        <path
            d="M91.0545 24.888C90.2514 25.3289 89.3694 25.5494 88.4088 25.5494C87.4639 25.5494 86.7631 25.1873 86.3064 24.4629C85.393 25.2187 84.3221 25.5966 83.0937 25.5966C81.8653 25.5966 80.9362 25.2896 80.3063 24.6754C79.6764 24.0456 79.3613 23.1953 79.3613 22.1246C79.3613 21.416 79.5109 20.8097 79.8102 20.3058C80.1094 19.8021 80.4952 19.432 80.9676 19.1957C81.8339 18.7863 82.7316 18.5817 83.6607 18.5817C84.6056 18.5817 85.3615 18.6052 85.9284 18.6525V17.4951C85.9284 16.6764 85.7631 16.1489 85.4324 15.9127C85.1016 15.6765 84.5347 15.5584 83.7316 15.5584C82.9441 15.5584 82.0544 15.7238 81.0622 16.0543L80.3772 13.9759C80.9598 13.6295 81.6684 13.3697 82.5031 13.1965C83.3536 13.0075 84.078 12.9131 84.6764 12.9131C86.2828 12.9131 87.4245 13.2595 88.1017 13.9523C88.7946 14.6294 89.1411 15.7945 89.1411 17.448V22.408C89.1411 22.8489 89.338 23.0694 89.7317 23.0694C89.9364 23.0694 90.2278 23.0221 90.6056 22.9276L91.0545 24.888ZM83.9914 23.4001C84.6527 23.4001 85.2985 23.1953 85.9284 22.7859V20.3058C85.4874 20.2744 85.1016 20.2587 84.7709 20.2587C83.2119 20.2587 82.4322 20.7625 82.4322 21.7702C82.4322 22.8567 82.9519 23.4001 83.9914 23.4001Z"
            fill="currentColor" />
        <path
            d="M99.0806 12.9602C100.451 12.9602 101.38 13.3145 101.868 14.0232C102.372 14.716 102.624 15.7079 102.624 16.9991V25.2896H99.3169V17.5896C99.3169 16.9755 99.2145 16.5032 99.0098 16.1725C98.8208 15.8261 98.3484 15.6529 97.5924 15.6529C96.8365 15.6529 96.1514 15.9441 95.5373 16.5268V25.2896H92.1592V13.1729H94.9467L95.2302 14.5191C95.6869 14.0939 96.2617 13.7318 96.9547 13.4327C97.6633 13.1177 98.372 12.9602 99.0806 12.9602Z"
            fill="currentColor" />
        <path
            d="M110.205 25.5966C108.582 25.5966 107.236 25.077 106.165 24.0377C105.095 22.9828 104.559 21.4002 104.559 19.2902C104.559 17.1645 105.086 15.582 106.141 14.5428C107.196 13.4877 108.551 12.9602 110.205 12.9602C111.181 12.9602 112.292 13.1413 113.535 13.5034L112.897 15.889C111.937 15.6686 111.165 15.5584 110.583 15.5584C109.653 15.5584 108.937 15.8418 108.432 16.4086C107.944 16.9598 107.7 17.944 107.7 19.3611C107.7 20.7783 107.968 21.7624 108.503 22.3135C109.055 22.8646 109.819 23.1401 110.794 23.1401C111.299 23.1401 112.071 23.0614 113.11 22.9039L113.511 25.0534C112.267 25.4155 111.165 25.5966 110.205 25.5966Z"
            fill="currentColor" />
        <path
            d="M117.689 19.5737C117.721 21.9356 118.761 23.1166 120.807 23.1166C121.769 23.1166 122.721 22.9355 123.667 22.5733L124.233 24.8172C123.02 25.3368 121.674 25.5966 120.193 25.5966C116.461 25.5966 114.595 23.4 114.595 19.0068C114.595 17.2747 115.059 15.834 115.988 14.6844C116.918 13.535 118.257 12.9602 120.005 12.9602C121.406 12.9602 122.485 13.3382 123.24 14.0939C124.013 14.834 124.399 15.8733 124.399 17.2117C124.399 17.999 124.296 18.7863 124.092 19.5737H117.689ZM121.753 17.7785V17.6369C121.753 16.078 121.201 15.2985 120.098 15.2985C118.776 15.2985 117.981 16.1252 117.713 17.7785H121.753Z"
            fill="currentColor" />
        <path
            d="M132.441 15.6056C131.15 15.6056 130.243 15.9757 129.724 16.7157V25.2896H126.417V13.1729H129.157L129.417 14.7081C130.331 13.5114 131.496 12.9131 132.914 12.9131C133.307 12.9131 133.669 12.9524 134 13.0311L133.457 15.7474C133.11 15.6529 132.771 15.6056 132.441 15.6056Z"
            fill="currentColor" />
        <mask id="mask0_1243_4941" style="mask-type:alpha" maskUnits="userSpaceOnUse" x="17" y="0" width="18"
            height="35">
            <path d="M34.5691 0.15332H17.3613V34.5641H34.5691V0.15332Z" fill="#D65C4B" />
        </mask>
        <g mask="url(#mask0_1243_4941)">
            <path
                d="M17.3622 34.5646C26.8657 34.5646 34.57 26.8615 34.57 17.3592C34.57 7.85694 26.8657 0.153809 17.3622 0.153809C7.85849 0.153809 0.154297 7.85694 0.154297 17.3592C0.154297 26.8615 7.85849 34.5646 17.3622 34.5646Z"
                fill="currentColor" />
        </g>
        <mask id="mask1_1243_4941" style="mask-type:alpha" maskUnits="userSpaceOnUse" x="0" y="0" width="35"
            height="35">
            <path fill-rule="evenodd" clip-rule="evenodd"
                d="M17.3622 34.5641C26.8657 34.5641 34.57 26.8609 34.57 17.3587C34.57 7.8564 26.8657 0.15332 17.3622 0.15332C7.85844 0.15332 0.154297 7.8564 0.154297 17.3587C0.154297 26.8609 7.85844 34.5641 17.3622 34.5641ZM17.363 25.9614C22.1148 25.9614 25.9669 22.1099 25.9669 17.3587C25.9669 12.6076 22.1148 8.75603 17.363 8.75603C12.6111 8.75603 8.75904 12.6076 8.75904 17.3587C8.75904 22.1099 12.6111 25.9614 17.363 25.9614Z"
                fill="#F1CAB9" />
        </mask>
        <g mask="url(#mask1_1243_4941)">
            <path d="M0.154297 -5.00854H17.3622V39.7255H0.154297V-5.00854Z" fill="currentColor" />
        </g>
    </g>
    <defs>
        <clipPath id="clip0_1243_4941">
            <rect width="134" height="35.3224" fill="white" />
        </clipPath>
    </defs>
</svg>