<svg width="144" height="35" viewBox="0 0 144 35" fill="none" xmlns="http://www.w3.org/2000/svg">
    <g clip-path="url(#clip0_1243_4912)">
        <path fill-rule="evenodd" clip-rule="evenodd"
            d="M37.3764 13.0066H39.4702C39.7803 13.0066 40.1681 13.0066 40.4783 13.0066C40.8659 13.0066 41.1761 12.9287 41.4863 12.773C41.7964 12.6172 42.0291 12.4615 42.1842 12.2278C42.3393 11.9941 42.4944 11.6047 42.4944 11.2153C42.4944 10.8259 42.4168 10.4364 42.2618 10.2028C42.1066 9.96919 41.874 9.73547 41.6414 9.65766C41.4088 9.50185 41.0986 9.42397 40.7884 9.42397C40.4783 9.34608 40.0905 9.34608 39.7803 9.34608H37.454V13.0066H37.3764ZM33.8094 6.23071H40.0905C40.9435 6.23071 41.719 6.3086 42.4168 6.46437C43.1923 6.62014 43.8126 6.93167 44.3554 7.24321C44.8983 7.63263 45.3635 8.09993 45.6737 8.80089C45.9839 9.42397 46.139 10.2807 46.139 11.2153C46.139 12.3836 45.8288 13.3961 45.2085 14.1749C44.5881 14.9538 43.7351 15.4989 42.5719 15.7325L46.6818 22.6643H42.4168L39.0049 16.122H37.2214V22.6643H33.6543V6.23071H33.8094Z"
            fill="#B5B5C3" />
        <path fill-rule="evenodd" clip-rule="evenodd"
            d="M51.2568 16.9788C51.2568 17.8355 51.4894 18.5365 51.9546 19.0816C52.4199 19.6268 53.1178 19.8604 53.9708 19.8604C54.8237 19.8604 55.5217 19.6268 55.987 19.0816C56.4522 18.5365 56.6848 17.8355 56.6848 16.9788C56.6848 16.122 56.4522 15.421 55.987 14.8759C55.5217 14.3307 54.8237 14.0971 53.9708 14.0971C53.1178 14.0971 52.4199 14.3307 51.9546 14.8759C51.4894 15.4989 51.2568 16.122 51.2568 16.9788ZM47.8447 16.9788C47.8447 16.0441 47.9999 15.2653 48.31 14.5643C48.6202 13.8634 49.0854 13.2403 49.6283 12.6951C50.1711 12.15 50.869 11.7605 51.5669 11.5269C52.3423 11.2154 53.1178 11.1375 53.9708 11.1375C54.8237 11.1375 55.5992 11.2932 56.3746 11.5269C57.1501 11.8384 57.7705 12.2279 58.3132 12.6951C58.8561 13.2403 59.3213 13.8634 59.6315 14.5643C59.9417 15.2653 60.0968 16.122 60.0968 16.9788C60.0968 17.9134 59.9417 18.6922 59.6315 19.3932C59.3213 20.0942 58.8561 20.7172 58.3132 21.2624C57.7705 21.8075 57.0725 22.197 56.3746 22.4306C55.5992 22.7422 54.8237 22.8201 53.9708 22.8201C53.1178 22.8201 52.3423 22.6643 51.5669 22.4306C50.7914 22.1191 50.1711 21.7297 49.6283 21.2624C49.0854 20.7172 48.6202 20.0942 48.31 19.3932C47.9999 18.6922 47.8447 17.9134 47.8447 16.9788Z"
            fill="#B5B5C3" />
        <path fill-rule="evenodd" clip-rule="evenodd"
            d="M72.892 22.6644H69.5575V21.1067H69.4799C69.3249 21.3403 69.1698 21.5739 69.0147 21.7298C68.8596 21.9634 68.627 22.1192 68.3168 22.3528C68.0066 22.5085 67.6964 22.6644 67.3863 22.7423C66.9985 22.8201 66.6884 22.898 66.2231 22.898C65.3701 22.898 64.6723 22.7423 64.1294 22.5085C63.5866 22.2749 63.1989 21.8855 62.8887 21.4182C62.5785 20.9509 62.4235 20.4057 62.2683 19.7047C62.1908 19.0817 62.1133 18.3807 62.1133 17.6019V11.3711H65.5252V16.9009C65.5252 17.2124 65.5252 17.524 65.5252 17.9134C65.5252 18.225 65.6028 18.6144 65.7578 18.848C65.913 19.0817 66.068 19.3932 66.3006 19.549C66.5333 19.7047 66.8435 19.8605 67.3087 19.8605C67.774 19.8605 68.0842 19.7826 68.3944 19.6268C68.7045 19.4711 68.8596 19.2375 69.0147 19.0037C69.1698 18.7701 69.2473 18.4586 69.3249 18.0691C69.4025 17.7576 69.4025 17.3683 69.4025 16.9788V11.3711H72.892V22.6644Z"
            fill="#B5B5C3" />
        <path fill-rule="evenodd" clip-rule="evenodd"
            d="M82.8949 14.1748H79.8707V17.9133C79.8707 18.2248 79.8707 18.5364 79.9482 18.77C79.9482 19.0036 80.0257 19.2372 80.1809 19.3931C80.2584 19.5488 80.4135 19.7046 80.6461 19.8603C80.8788 19.9382 81.189 20.0161 81.4991 20.0161C81.6542 20.0161 81.8868 20.0161 82.197 19.9382C82.5071 19.9382 82.7398 19.7825 82.8949 19.7046V22.5863C82.5071 22.742 82.1195 22.8199 81.7317 22.8979C81.344 22.9758 80.8788 22.9758 80.491 22.9758C79.9483 22.9758 79.4054 22.8979 78.8626 22.8199C78.3973 22.6642 77.9321 22.5084 77.5443 22.1969C77.1566 21.9633 76.924 21.5738 76.6914 21.1066C76.4588 20.6392 76.3812 20.1719 76.3812 19.5488V14.1748H74.21V11.371H76.3812V8.02197H79.7931V11.371H82.8173V14.1748H82.8949Z"
            fill="#B5B5C3" />
        <path fill-rule="evenodd" clip-rule="evenodd"
            d="M92.2777 15.7325C92.2777 15.1095 92.1226 14.6422 91.7348 14.2528C91.3472 13.8633 90.8043 13.6297 90.1839 13.6297C89.7962 13.6297 89.486 13.7076 89.1758 13.7855C88.8657 13.9412 88.6331 14.0971 88.4005 14.2528C88.1678 14.4864 88.0127 14.6422 87.9351 14.9538C87.8577 15.1874 87.7801 15.4989 87.7025 15.7325H92.2777ZM95.2243 20.7172C94.6815 21.4182 93.9836 21.9633 93.1307 22.3528C92.2777 22.7421 91.4246 22.8979 90.4941 22.8979C89.6412 22.8979 88.8657 22.7421 88.0903 22.5085C87.3148 22.197 86.6944 21.8075 86.1517 21.3403C85.6089 20.795 85.1436 20.1719 84.8334 19.4711C84.5232 18.7701 84.3682 17.9134 84.3682 17.0566C84.3682 16.122 84.5232 15.3432 84.8334 14.6422C85.1436 13.9412 85.6089 13.3182 86.1517 12.773C86.6944 12.2277 87.3924 11.8384 88.0903 11.6047C88.8657 11.2931 89.6412 11.2153 90.4941 11.2153C91.2696 11.2153 92.045 11.3711 92.6654 11.6047C93.2857 11.9162 93.8286 12.3057 94.2938 12.773C94.7591 13.3182 95.0693 13.9412 95.3019 14.6422C95.5345 15.3432 95.6896 16.1999 95.6896 17.0566V18.147H87.7025C87.8577 18.848 88.1678 19.3152 88.6331 19.7047C89.0984 20.0941 89.6412 20.3278 90.3391 20.3278C90.8819 20.3278 91.3472 20.1719 91.7348 19.9383C92.1226 19.7047 92.4327 19.3152 92.7429 18.9258L95.2243 20.7172Z"
            fill="#B5B5C3" />
        <path fill-rule="evenodd" clip-rule="evenodd"
            d="M104.22 10.748L100.576 16.4335H104.22V10.748ZM104.22 19.3931H97.1641V16.4335L103.755 6.23071H107.477V16.4335H109.571V19.3931H107.477V22.6643H104.142V19.3931H104.22Z"
            fill="#B5B5C3" />
        <path fill-rule="evenodd" clip-rule="evenodd"
            d="M111.819 6.23071H117.17L120.97 16.9788L124.77 6.23071H130.12V22.6643H126.553V10.047H126.476L122.21 22.6643H119.496L115.387 10.047V22.6643H111.819V6.23071Z"
            fill="#B5B5C3" />
        <path fill-rule="evenodd" clip-rule="evenodd"
            d="M140.588 15.7325C140.588 15.1095 140.433 14.6422 140.045 14.2528C139.658 13.8633 139.115 13.6297 138.494 13.6297C138.107 13.6297 137.796 13.7076 137.486 13.7855C137.176 13.9412 136.943 14.0971 136.711 14.2528C136.478 14.4864 136.323 14.6422 136.245 14.9538C136.168 15.1874 136.091 15.4989 136.013 15.7325H140.588ZM143.534 20.7172C142.992 21.4182 142.294 21.9633 141.441 22.3528C140.588 22.7421 139.735 22.8979 138.804 22.8979C137.952 22.8979 137.176 22.7421 136.401 22.5085C135.625 22.197 135.005 21.8075 134.462 21.3403C133.919 20.795 133.454 20.1719 133.143 19.4711C132.833 18.7701 132.679 17.9134 132.679 17.0566C132.679 16.122 132.833 15.3432 133.143 14.6422C133.454 13.9412 133.919 13.3182 134.462 12.773C135.005 12.2277 135.703 11.8384 136.401 11.6047C137.176 11.2931 137.952 11.2153 138.804 11.2153C139.58 11.2153 140.356 11.3711 140.976 11.6047C141.596 11.9162 142.139 12.3057 142.604 12.773C143.07 13.3182 143.38 13.9412 143.612 14.6422C143.844 15.3432 144 16.1999 144 17.0566V18.147H136.013C136.168 18.848 136.478 19.3152 136.943 19.7047C137.409 20.0941 137.952 20.3278 138.649 20.3278C139.192 20.3278 139.658 20.1719 140.045 19.9383C140.433 19.7047 140.743 19.3152 141.054 18.9258L143.534 20.7172Z"
            fill="#B5B5C3" />
        <path fill-rule="evenodd" clip-rule="evenodd"
            d="M27.0625 1.4798C27.0625 0.623074 27.7604 0 28.5358 0C29.3889 0 30.0092 0.700957 30.0092 1.4798C30.0092 2.33652 29.3113 2.9596 28.5358 2.9596C27.7604 3.03748 27.0625 2.33652 27.0625 1.4798Z"
            fill="#B5B5C3" />
        <path fill-rule="evenodd" clip-rule="evenodd"
            d="M0 1.4798C0 0.700957 0.6979 0 1.47334 0C2.32633 0 3.02423 0.700957 3.02423 1.4798C3.02423 2.33652 2.32633 3.03748 1.47334 3.03748C0.6979 3.03748 0 2.33652 0 1.4798Z"
            fill="#B5B5C3" />
        <path fill-rule="evenodd" clip-rule="evenodd"
            d="M21.4023 32.4777C21.4023 31.6209 22.1002 30.9978 22.8757 30.9978C23.7286 30.9978 24.349 31.6988 24.349 32.4777C24.349 33.3344 23.6511 33.9574 22.8757 33.9574C22.1002 33.9574 21.4023 33.3344 21.4023 32.4777Z"
            fill="#B5B5C3" />
        <path fill-rule="evenodd" clip-rule="evenodd"
            d="M19.2306 6.38659C19.4632 6.62024 19.4632 6.93178 19.2306 7.08755L16.6716 9.65773C16.439 9.89136 16.5165 10.0472 16.8267 10.2029C18.3001 10.7481 19.4632 11.9164 19.9285 13.3182C20.006 13.552 20.2387 13.6298 20.4713 13.4741L23.0303 10.9039C23.2629 10.6702 23.573 10.6702 23.7282 10.9039L25.977 13.1625C26.2096 13.3961 26.3646 13.3182 26.3646 13.0067V4.05006C26.3646 3.89429 26.2872 3.81641 26.132 3.81641H17.1369C16.8266 3.81641 16.8266 3.97218 16.9818 4.20583L19.2306 6.38659ZM13.1821 10.125C13.4147 10.0472 13.4923 9.81345 13.3372 9.57984L10.7783 7.00966C10.5456 6.77601 10.5456 6.46447 10.7783 6.3087L13.0271 4.05006C13.2597 3.81641 13.1821 3.66064 12.8719 3.66064H4.03186C3.87677 3.81641 3.72168 3.89429 3.72168 4.05006V13.0067C3.72168 13.3182 3.87677 13.3182 4.1094 13.1625L6.35819 10.9039C6.59082 10.6702 6.901 10.6702 7.05609 10.9039L9.61503 13.4741C9.84773 13.7077 10.0028 13.6298 10.1579 13.3182C10.6231 11.8385 11.7863 10.6702 13.1821 10.125ZM15.2758 20.4057C14.9656 20.4057 14.8881 20.6394 14.9656 20.8731L16.439 24.1442C16.5165 24.3779 16.439 24.6894 16.2063 24.8451L13.3372 26.1692C13.1045 26.3249 13.1045 26.4807 13.3372 26.5586L21.712 29.5961C21.8671 29.674 22.0222 29.5961 22.0222 29.4403L25.1239 21.0288C25.2015 20.7952 25.1239 20.6394 24.8138 20.7952L21.9446 22.1192C21.712 22.2749 21.4018 22.1192 21.2467 21.8855L19.6183 18.3807C19.5408 18.1471 19.3082 18.1471 19.153 18.3029C18.6878 18.926 18.0674 19.4711 17.292 19.8606C16.8266 20.0942 16.2063 20.25 15.6635 20.3278C15.6635 20.3278 15.4309 20.4057 15.2758 20.4057Z"
            fill="#B5B5C3" />
        <path fill-rule="evenodd" clip-rule="evenodd"
            d="M11.2441 15.1096C11.2441 13.0067 12.9502 11.3711 14.9663 11.3711C17.06 11.3711 18.6884 13.0846 18.6884 15.1096C18.6884 17.2124 16.9824 18.9259 14.9663 18.9259C12.9502 18.848 11.2441 17.2124 11.2441 15.1096Z"
            fill="#B5B5C3" />
    </g>
    <defs>
        <clipPath id="clip0_1243_4912">
            <rect width="144" height="34.7114" fill="white" />
        </clipPath>
    </defs>
</svg>