<svg width="1248" height="277" viewBox="0 0 1248 277" fill="none" xmlns="http://www.w3.org/2000/svg">
<mask id="mask0_1411_2963" style="mask-type:alpha" maskUnits="userSpaceOnUse" x="0" y="0" width="1248" height="281">
<g clip-path="url(#clip0_1411_2963)">
<path d="M1162.91 280.9C1134.55 280.9 1112.01 275.202 1095.29 263.806C1078.58 252.411 1069.46 236.71 1067.94 216.704H1118.84C1120.11 225.314 1124.42 231.899 1131.76 236.457C1139.36 240.762 1149.74 242.914 1162.91 242.914C1174.81 242.914 1183.42 241.268 1188.74 237.976C1194.31 234.431 1197.1 229.493 1197.1 223.162C1197.1 218.35 1195.45 214.679 1192.16 212.146C1189.12 209.361 1183.42 207.082 1175.07 205.309L1143.92 198.851C1120.87 194.04 1103.9 186.823 1093.01 177.2C1082.12 167.324 1076.68 154.662 1076.68 139.215C1076.68 120.475 1083.9 105.914 1098.33 95.5314C1112.77 84.8956 1132.9 79.5776 1158.73 79.5776C1184.31 79.5776 1204.7 84.769 1219.89 95.1516C1235.09 105.281 1243.44 119.462 1244.96 137.695H1194.06C1193.05 131.111 1189.5 126.173 1183.42 122.881C1177.34 119.336 1168.73 117.563 1157.59 117.563C1147.46 117.563 1139.86 119.082 1134.8 122.121C1129.99 124.907 1127.58 128.958 1127.58 134.276C1127.58 138.835 1129.61 142.507 1133.66 145.292C1137.71 147.824 1144.42 150.104 1153.79 152.129L1188.74 159.347C1208.24 163.398 1222.93 170.996 1232.81 182.138C1242.94 193.027 1248 205.942 1248 220.883C1248 239.875 1240.53 254.69 1225.59 265.326C1210.9 275.708 1190.01 280.9 1162.91 280.9Z" fill="#282832"/>
<path d="M983.38 281.091V87.366H1040.36V281.091H983.38ZM981.48 61.5361V0H1042.26V61.5361H981.48Z" fill="#282832"/>
<path d="M750.413 281.101V87.3762H806.253V132.958H807.393V281.101H750.413ZM885.266 281.101V161.068C885.266 150.432 882.481 142.455 876.909 137.137C871.591 131.819 863.74 129.16 853.357 129.16C844.494 129.16 836.516 131.186 829.426 135.238C822.588 139.289 817.143 144.86 813.091 151.951C809.292 159.042 807.393 167.398 807.393 177.021L802.455 130.299C808.786 116.118 818.029 104.849 830.185 96.4926C842.594 87.8826 857.789 83.5776 875.77 83.5776C897.296 83.5776 913.757 89.6553 925.153 101.811C936.549 113.713 942.247 129.793 942.247 150.052V281.101H885.266Z" fill="#282832"/>
<path d="M613.1 280.9C591.828 280.9 573.087 276.721 556.88 268.364C540.925 259.754 528.389 247.852 519.272 232.658C510.409 217.211 505.977 199.484 505.977 179.479C505.977 159.473 510.409 142 519.272 127.059C528.389 112.118 540.925 100.47 556.88 92.1128C573.087 83.756 591.828 79.5776 613.1 79.5776C634.626 79.5776 653.367 83.756 669.321 92.1128C685.529 100.47 698.065 112.118 706.928 127.059C715.792 142 720.224 159.473 720.224 179.479C720.224 199.484 715.665 217.211 706.548 232.658C697.685 247.852 685.149 259.754 668.941 268.364C652.987 276.721 634.373 280.9 613.1 280.9ZM613.1 236.077C621.964 236.077 629.941 233.798 637.032 229.24C644.376 224.681 650.201 218.224 654.506 209.867C658.811 201.257 660.964 191.001 660.964 179.099C660.964 161.626 656.279 148.204 646.909 138.835C637.792 129.212 626.522 124.4 613.1 124.4C599.678 124.4 588.282 129.212 578.912 138.835C569.795 148.458 565.237 161.879 565.237 179.099C565.237 191.001 567.389 201.257 571.695 209.867C576 218.224 581.698 224.681 588.789 229.24C596.133 233.798 604.237 236.077 613.1 236.077Z" fill="#282832"/>
<path d="M419.774 280.902V234.181L423.573 234.94C421.04 248.868 413.443 260.01 400.78 268.367C388.371 276.724 373.43 280.902 355.956 280.902C338.228 280.902 322.78 276.851 309.611 268.747C296.696 260.39 286.693 248.742 279.602 233.801C272.511 218.86 268.965 201.26 268.965 181.001C268.965 160.489 272.637 142.636 279.982 127.442C287.326 112.248 297.582 100.473 310.751 92.1159C324.173 83.7591 339.748 79.5808 357.475 79.5808C375.962 79.5808 390.904 83.8857 402.3 92.4957C413.949 101.106 420.787 112.881 422.813 127.822L418.634 128.202V3.61035H475.615V280.902H419.774ZM374.189 235.32C387.611 235.32 398.501 230.635 406.858 221.266C415.215 211.643 419.394 197.968 419.394 180.242C419.394 162.515 415.089 148.967 406.478 139.597C398.121 129.974 387.105 125.163 373.43 125.163C360.261 125.163 349.371 129.974 340.761 139.597C332.404 149.22 328.225 162.895 328.225 180.621C328.225 198.348 332.404 211.896 340.761 221.266C349.371 230.635 360.514 235.32 374.189 235.32Z" fill="#282832"/>
<path d="M0 281.104L98.0065 7.61035H148.149L58.1202 281.104H0ZM200.572 281.104L110.922 7.61035H163.344L261.351 281.104H200.572ZM51.6624 175.125H205.13V220.708H51.6624V175.125Z" fill="#282832"/>
</g>
</mask>
<g mask="url(#mask0_1411_2963)">
<rect width="1248" height="282" fill="url(#paint0_linear_1411_2963)"/>
</g>
<defs>
<linearGradient id="paint0_linear_1411_2963" x1="662.5" y1="-55.5" x2="668.5" y2="282" gradientUnits="userSpaceOnUse">
<stop stop-color="#4D4D5F"/>
<stop offset="1" stop-color="#0D0D10"/>
</linearGradient>
<clipPath id="clip0_1411_2963">
<rect width="1248" height="281" fill="white"/>
</clipPath>
</defs>
</svg>
